<svg width="32" height="32" viewBox="0 0 32 32" fill="none" stroke="currentColor" stroke-width="1.2" xmlns="http://www.w3.org/2000/svg"><path d="M8.5 18.5V9.4C8.5 7.3 10 5.5 11.8 5.5C12.5 5.5 13.5 5.8 14.2 6.8" stroke-miterlimit="10"></path><path d="M15.8 5.5L12.5 8.4" stroke-miterlimit="10" stroke-linecap="round"></path><path d="M27 20.5L26.0001 25.4C25.5001 26.6 23.8001 27.2 22.4001 27.2H10.7001C9.2001 27.2 7.6001 26.5 7.1001 25.4L6 20.5" stroke-miterlimit="10"></path><path d="M8.03226 18H16.7903H25.5484C27 18 27 20.4 27 20.4C27 20.76 26.8065 21 26.4194 21C26.4194 21 22.3548 21 16.6452 21C10.8387 21 6.58065 21 6.58065 21C6.29032 21 6 20.76 6 20.4C6 19.68 6.29032 18 8.03226 18Z" stroke-miterlimit="10"></path><path d="M19.8125 15.875L16.0151 9" stroke-miterlimit="10" stroke-linecap="round" stroke-dasharray="2 2"></path><path d="M17 15.9375L14 10.3806" stroke-miterlimit="10" stroke-linecap="round" stroke-dasharray="2 2"></path><path d="M22.9375 15.8125L17.6533 7.38062" stroke-miterlimit="10" stroke-linecap="round" stroke-dasharray="2 2"></path></svg>