<svg width="32" height="32" viewBox="0 0 27 27" fill="none" stroke="currentColor" stroke-width="1" xmlns="http://www.w3.org/2000/svg"><g><path d="M21.1394 5.49023H6.23558C5.0009 5.49023 4 6.49114 4 7.72581V21.1393C4 22.3739 5.0009 23.3748 6.23558 23.3748H21.1394C22.3741 23.3748 23.375 22.3739 23.375 21.1393V7.72581C23.375 6.49114 22.3741 5.49023 21.1394 5.49023Z" stroke-linejoin="round"></path><path d="M19.6487 4V5.49038M7.72559 4V5.49038V4Z" stroke-linecap="round" stroke-linejoin="round"></path><path d="M10.8462 12.1973H7.58594C7.25155 12.1973 6.98047 12.4683 6.98047 12.8027V16.063C6.98047 16.3973 7.25155 16.6684 7.58594 16.6684H10.8462C11.1805 16.6684 11.4516 16.3973 11.4516 16.063V12.8027C11.4516 12.4683 11.1805 12.1973 10.8462 12.1973Z" stroke-linecap="round" stroke-linejoin="round"></path><path d="M23.375 9.2168H4" stroke-linecap="round" stroke-linejoin="round"></path></g></svg>