<svg width="79" height="86" viewBox="0 0 79 86" fill="none" xmlns="http://www.w3.org/2000/svg" class="mt-4 mb-2 text-reece-blue-full"><path d="M54.3124 85.4653V21.7321L19.75 3.14453V68.1956L23.4531 70.183V9.78673L50.6093 24.389V83.4674L54.3124 85.4653Z" fill="currentColor" fill-opacity="0.05"></path><path d="M50.6095 24.391L25.9219 11.1172V68.8671L50.6095 82.1409V24.391Z" fill="currentColor" fill-opacity="0.2"></path><path d="M23.4531 70.1959L25.9219 68.8675V11.1175L23.4531 9.78906V70.1959Z" fill="url(#paint0_linear_4258_12334)"></path><path d="M29.121 40.7159C29.4864 40.6734 29.9011 40.9072 30.2467 41.311L30.9577 41.3004C31.4021 41.2473 31.9353 41.7786 32.1525 42.5013C32.3698 43.224 32.1822 43.851 31.7378 43.9042L30.9083 43.9148C30.7898 44.2549 30.5726 44.4887 30.2566 44.5205C29.6049 44.6056 28.8248 43.8191 28.5088 42.767C28.1928 41.7149 28.4693 40.8009 29.121 40.7159Z" fill="currentColor" fill-opacity="0.4"></path><path d="M30.4821 44.4529C31.056 44.1662 31.1676 43.1138 30.7313 42.1022C30.2951 41.0906 29.4762 40.5029 28.9024 40.7896C28.3285 41.0762 28.2169 42.1286 28.6532 43.1402C29.0894 44.1518 29.9083 44.7395 30.4821 44.4529Z" fill="currentColor" fill-opacity="0.4"></path><path d="M59.25 19.1289V82.8622L54.3125 85.519V21.7326L59.25 19.1289Z" fill="url(#paint1_linear_4258_12334)"></path><path d="M19.75 3.14625L24.6776 0.5L59.2501 19.13L54.3126 21.7338L19.75 3.14625Z" fill="url(#paint2_linear_4258_12334)"></path><defs><linearGradient id="paint0_linear_4258_12334" x1="24.6875" y1="9.78906" x2="24.6875" y2="70.1959" gradientUnits="userSpaceOnUse"><stop stop-color="currentColor" stop-opacity="0.4"></stop><stop offset="1" stop-color="currentColor" stop-opacity="0.2"></stop></linearGradient><linearGradient id="paint1_linear_4258_12334" x1="56.7813" y1="19.1289" x2="56.7813" y2="85.519" gradientUnits="userSpaceOnUse"><stop stop-color="currentColor" stop-opacity="0.4"></stop><stop offset="1" stop-color="currentColor" stop-opacity="0.2"></stop></linearGradient><linearGradient id="paint2_linear_4258_12334" x1="39.5001" y1="0.5" x2="39.5001" y2="21.7338" gradientUnits="userSpaceOnUse"><stop stop-color="currentColor" stop-opacity="0.4"></stop><stop offset="1" stop-color="currentColor" stop-opacity="0.2"></stop></linearGradient></defs></svg>