<svg width="32" height="32" viewBox="0 0 32 32" stroke="currentColor" fill="none" xmlns="http://www.w3.org/2000/svg" stroke-width="1.2"><path d="M8.00903 21.1636L22.5 6.66357" stroke-linecap="round" stroke-linejoin="round"></path><path d="M25.3364 9.49088L10.8364 23.9909" stroke-linecap="round" stroke-linejoin="round"></path><path d="M8.00909 21.1636L6 25.9999L10.8364 23.9908" stroke-linecap="round" stroke-linejoin="round"></path><path d="M22.5908 6.58183C22.9693 6.22442 23.4721 6.02863 23.9926 6.03606C24.5131 6.0435 25.0102 6.25353 25.3782 6.62161C25.7463 6.98969 25.9564 7.48679 25.9638 8.00728C25.9713 8.52776 25.7755 9.03065 25.4181 9.40909" stroke-linecap="round" stroke-linejoin="round"></path><path d="M21.1729 7.99994L24.0001 10.8272" stroke-linecap="round" stroke-linejoin="round"></path><path d="M19.6364 15.1909L26 21.5636L21.5637 26L15.1909 19.6273" stroke-linecap="round" stroke-linejoin="round"></path><path d="M12.3636 16.8L6 10.4364L10.4364 6L16.8 12.3636" stroke-linecap="round" stroke-linejoin="round"></path><path d="M12.3638 10.5818L13.2729 9.63635" stroke-linecap="round" stroke-linejoin="round"></path><path d="M21.4546 19.6727L22.3637 18.7273" stroke-linecap="round" stroke-linejoin="round"></path></svg>