<svg width="32" height="32" viewBox="0 0 32 32" fill="none" stroke="currentColor" xmlns="http://www.w3.org/2000/svg"><path d="M16 8.5L16 23.5" stroke-miterlimit="10" stroke-linecap="round" stroke-linejoin="round"></path><path d="M24.5 5.5H7.5C6.94772 5.5 6.5 5.94772 6.5 6.5V16V25.5C6.5 26.0523 6.94772 26.5 7.5 26.5H24.5C25.0523 26.5 25.5 26.0523 25.5 25.5V16V6.5C25.5 5.94772 25.0523 5.5 24.5 5.5Z"></path><path d="M22.3334 8.5H9.66675V16V23.5H22.3334V16V8.5Z"></path><line x1="9.66675" y1="16" x2="22.3334" y2="16"></line><line y1="-0.5" x2="4.36208" y2="-0.5" transform="matrix(-0.725953 -0.687745 0.725953 -0.687745 10.7222 8.5)"></line><line y1="-0.5" x2="4.36208" y2="-0.5" transform="matrix(0.725953 0.687745 -0.725953 0.687744 21.2778 23.5)"></line><line y1="-0.5" x2="4.36208" y2="-0.5" transform="matrix(0.725953 -0.687745 0.725953 0.687745 22.3333 9.5)"></line><line y1="-0.5" x2="4.36208" y2="-0.5" transform="matrix(-0.725953 0.687745 -0.725953 -0.687745 9.66675 22.5)"></line></svg>