<svg width="32" height="32" viewBox="0 0 32 32" fill="none" stroke="currentColor" stroke-width="1.2" xmlns="http://www.w3.org/2000/svg"><path d="M10.4444 26C7.98985 26 6 24.0102 6 21.5556V7C6 6.44772 6.44772 6 7 6H13.8889C14.4412 6 14.8889 6.44772 14.8889 7V21.5556C14.8889 24.0102 12.899 26 10.4444 26ZM10.4444 26H25C25.5523 26 26 25.5523 26 25V18.1111C26 17.5588 25.5523 17.1111 25 17.1111H21.1743M10.4444 21.5556H10.4556M14.875 10.8125L17.5238 8.16375C17.9156 7.77185 18.5515 7.77343 18.9415 8.16727L23.7991 13.0733C24.1866 13.4647 24.1847 14.0958 23.7948 14.4849L13.2634 24.9918" stroke-linecap="round" stroke-linejoin="round"></path></svg>