<svg width="79" height="86" viewBox="0 0 79 86" fill="none" xmlns="http://www.w3.org/2000/svg" class="mt-4 mb-2 text-reece-blue-full"><path d="M25.9219 40.3516V63.594L50.6094 76.8784V53.636L25.9219 40.3516Z" fill="url(#paint0_linear_4258_1814)"></path><path d="M25.9219 10.457V35.0385L50.6094 48.3229V23.7414L25.9219 10.457Z" fill="url(#paint1_linear_4258_1814)"></path><path d="M35.7968 15.1036L44.4373 72.8961L38.8876 70.2392L28.3906 11.1289L35.7968 15.1036Z" fill="white" fill-opacity="0.3"></path><path d="M50.6096 53.6366L23.4531 39.0131L25.9219 37.6953L50.6096 50.9797V53.6366Z" fill="white"></path><path d="M19.75 3.15625V66.9214L54.3123 85.5196V21.7544L19.75 3.15625ZM23.4531 9.12892L50.6092 23.7418V79.5363L23.4531 64.9234V9.12892Z" fill="currentColor" fill-opacity="0.1"></path><path d="M23.4531 9.12891V36.3566L25.9221 35.0388V10.4573L23.4531 9.12891Z" fill="currentColor" fill-opacity="0.4"></path><path d="M25.9221 37.6945L23.4531 36.3555V64.9223L25.9221 63.5938V37.6945Z" fill="currentColor" fill-opacity="0.4"></path><path d="M50.6096 79.539L23.4531 64.9261L25.9219 63.5977L50.6096 76.8821V79.539Z" fill="currentColor" fill-opacity="0.4"></path><path d="M23.4531 36.3569L50.6096 50.9803V48.3235L25.9219 35.0391L23.4531 36.3569Z" fill="currentColor" fill-opacity="0.4"></path><path d="M37.5647 41.2773L39.7668 42.4676C39.362 42.829 38.7102 43.0522 38.098 42.999C37.2784 42.9246 36.834 42.3932 37.1105 41.8087C37.2092 41.6068 37.3672 41.4261 37.5647 41.2773Z" fill="currentColor" fill-opacity="0.4"></path><path d="M23.4531 36.3555V39.0124L50.6096 53.6358V50.9789L23.4531 36.3555Z" fill="currentColor" fill-opacity="0.1"></path><path d="M59.2502 19.0977V82.8522L54.3125 85.5091L54.3224 21.7545L59.2502 19.0977Z" fill="url(#paint2_linear_4258_1814)"></path><path d="M19.75 3.15688L24.6776 0.5L59.25 19.0982L54.3224 21.755L19.75 3.15688Z" fill="currentColor" fill-opacity="0.3"></path><defs><linearGradient id="paint0_linear_4258_1814" x1="38.2656" y1="40.3516" x2="38.2656" y2="76.8784" gradientUnits="userSpaceOnUse"><stop stop-color="currentColor" stop-opacity="0.4"></stop><stop offset="1" stop-color="currentColor" stop-opacity="0.2"></stop></linearGradient><linearGradient id="paint1_linear_4258_1814" x1="38.2656" y1="10.457" x2="38.2656" y2="48.3229" gradientUnits="userSpaceOnUse"><stop stop-color="currentColor" stop-opacity="0.4"></stop><stop offset="1" stop-color="currentColor" stop-opacity="0.2"></stop></linearGradient><linearGradient id="paint2_linear_4258_1814" x1="56.7814" y1="19.0977" x2="56.7814" y2="85.5091" gradientUnits="userSpaceOnUse"><stop stop-color="currentColor" stop-opacity="0.4"></stop><stop offset="1" stop-color="currentColor" stop-opacity="0.2"></stop></linearGradient></defs></svg>